{
  "accessors": [
    {
      "bufferView": 1,
      "componentType": 5126,
      "count": 1981,
      "max": [
        12.954999923706055,
        26.397899627685547,
        12.147100448608398
      ],
      "min": [
        -13.045000076293945,
        3.9999001026153564,
        -13.852899551391602
      ],
      "type": "VEC3"
    },
    {
      "bufferView": 1,
      "byteOffset": 23772,
      "componentType": 5126,
      "count": 1981,
      "max": [
        1,
        1,
        0.99603354930877686
      ],
      "min": [
        -0.99603354930877686,
        -1,
        -0.99603354930877686
      ],
      "type": "VEC3"
    },
    {
      "bufferView": 0,
      "componentType": 5125,
      "count": 5988,
      "max": [
        1980
      ],
      "min": [
        0
      ],
      "type": "SCALAR"
    },
    {
      "bufferView": 1,
      "byteOffset": 47544,
      "componentType": 5126,
      "count": 144,
      "max": [
        5.3629999160766602,
        11.602899551391602,
        11.606100082397461
      ],
      "min": [
        -5.8379998207092285,
        7.5606999397277832,
        -13.809900283813477
      ],
      "type": "VEC3"
    },
    {
      "bufferView": 1,
      "byteOffset": 49272,
      "componentType": 5126,
      "count": 144,
      "max": [
        0.94808602333068848,
        0.98718374967575073,
        0.95246821641921997
      ],
      "min": [
        -0.94813907146453857,
        -0.96118998527526855,
        -0.93242555856704712
      ],
      "type": "VEC3"
    },
    {
      "bufferView": 0,
      "byteOffset": 23952,
      "componentType": 5125,
      "count": 144,
      "max": [
        143
      ],
      "min": [
        0
      ],
      "type": "SCALAR"
    },
    {
      "bufferView": 1,
      "byteOffset": 51000,
      "componentType": 5126,
      "count": 3078,
      "max": [
        13.909999847412109,
        25.997900009155273,
        13.104100227355957
      ],
      "min": [
        -14,
        4.9979000091552734,
        -14.809900283813477
      ],
      "type": "VEC3"
    },
    {
      "bufferView": 1,
      "byteOffset": 87936,
      "componentType": 5126,
      "count": 3078,
      "max": [
        1,
        1,
        1
      ],
      "min": [
        -1,
        -1,
        -1
      ],
      "type": "VEC3"
    },
    {
      "bufferView": 0,
      "byteOffset": 24528,
      "componentType": 5125,
      "count": 7620,
      "max": [
        3077
      ],
      "min": [
        0
      ],
      "type": "SCALAR"
    },
    {
      "bufferView": 1,
      "byteOffset": 124872,
      "componentType": 5126,
      "count": 2415,
      "max": [
        13.508399963378906,
        23.995899200439453,
        12.720700263977051
      ],
      "min": [
        -13.745699882507324,
        3,
        -15
      ],
      "type": "VEC3"
    },
    {
      "bufferView": 1,
      "byteOffset": 153852,
      "componentType": 5126,
      "count": 2415,
      "max": [
        0.99999856948852539,
        1,
        0.99995940923690796
      ],
      "min": [
        -0.99628043174743652,
        -0.98533493280410767,
        -0.99700236320495605
      ],
      "type": "VEC3"
    },
    {
      "bufferView": 0,
      "byteOffset": 55008,
      "componentType": 5125,
      "count": 6402,
      "max": [
        2414
      ],
      "min": [
        0
      ],
      "type": "SCALAR"
    }
  ],
  "asset": {
    "extras": {
      "author": "CowboyTruman (https://sketchfab.com/CowboyTruman)",
      "license": "CC-BY-4.0 (http://creativecommons.org/licenses/by/4.0/)",
      "source": "https://sketchfab.com/3d-models/bucket-9c8e168a0b064c6a9da08e5c3daa1cd5",
      "title": "Bucket"
    },
    "generator": "Sketchfab-10.10.1-rc1",
    "version": "2.0"
  },
  "bufferViews": [
    {
      "buffer": 0,
      "byteLength": 80616,
      "byteOffset": 0,
      "name": "floatBufferViews",
      "target": 34963
    },
    {
      "buffer": 0,
      "byteLength": 182832,
      "byteOffset": 80616,
      "byteStride": 12,
      "name": "floatBufferViews",
      "target": 34962
    }
  ],
  "buffers": [
    {
      "byteLength": 263448,
      "uri": "scene.bin"
    }
  ],
  "materials": [
    {
      "doubleSided": true,
      "emissiveFactor": [
        0,
        0,
        0
      ],
      "name": "color_6306067",
      "pbrMetallicRoughness": {
        "baseColorFactor": [
          0.376471,
          0.22352900000000001,
          0.074509800000000001,
          1
        ],
        "metallicFactor": 0,
        "roughnessFactor": 1
      }
    },
    {
      "doubleSided": true,
      "emissiveFactor": [
        0,
        0,
        0
      ],
      "name": "color_6383466",
      "pbrMetallicRoughness": {
        "baseColorFactor": [
          0.38039200000000001,
          0.403922,
          0.415686,
          1
        ],
        "metallicFactor": 0,
        "roughnessFactor": 1
      }
    },
    {
      "doubleSided": true,
      "emissiveFactor": [
        0,
        0,
        0
      ],
      "name": "color_10988977",
      "pbrMetallicRoughness": {
        "baseColorFactor": [
          0.65490199999999998,
          0.67843100000000001,
          0.69411800000000001,
          1
        ],
        "metallicFactor": 0,
        "roughnessFactor": 1
      }
    },
    {
      "doubleSided": true,
      "emissiveFactor": [
        0,
        0,
        0
      ],
      "name": "color_11107152",
      "pbrMetallicRoughness": {
        "baseColorFactor": [
          0.66274500000000003,
          0.48235299999999998,
          0.313726,
          1
        ],
        "metallicFactor": 0,
        "roughnessFactor": 1
      }
    }
  ],
  "meshes": [
    {
      "primitives": [
        {
          "attributes": {
            "NORMAL": 1,
            "POSITION": 0
          },
          "indices": 2,
          "material": 0,
          "mode": 4
        }
      ]
    },
    {
      "primitives": [
        {
          "attributes": {
            "NORMAL": 4,
            "POSITION": 3
          },
          "indices": 5,
          "material": 1,
          "mode": 4
        }
      ]
    },
    {
      "primitives": [
        {
          "attributes": {
            "NORMAL": 7,
            "POSITION": 6
          },
          "indices": 8,
          "material": 2,
          "mode": 4
        }
      ]
    },
    {
      "primitives": [
        {
          "attributes": {
            "NORMAL": 10,
            "POSITION": 9
          },
          "indices": 11,
          "material": 3,
          "mode": 4
        }
      ]
    }
  ],
  "nodes": [
    {
      "children": [
        1
      ],
      "name": "RootNode (gltf orientation matrix)",
      "rotation": [
        -0.70710678118654746,
        -0,
        -0,
        0.70710678118654757
      ]
    },
    {
      "children": [
        2
      ],
      "name": "RootNode (model correction matrix)"
    },
    {
      "children": [
        3
      ],
      "name": "root"
    },
    {
      "children": [
        4
      ],
      "matrix": [
        1,
        0,
        0,
        0,
        0,
        2.2204460492503131e-16,
        1,
        0,
        0,
        -1,
        2.2204460492503131e-16,
        0,
        0,
        0,
        0,
        1
      ],
      "name": "GLTF_SceneRootNode"
    },
    {
      "children": [
        5,
        6,
        7,
        8
      ],
      "matrix": [
        1,
        0,
        0,
        0,
        0,
        -0.99990790331874235,
        0.013571473048904763,
        0,
        0,
        -0.013571473048904763,
        -0.99990790331874235,
        0,
        0,
        33.059474945068359,
        0,
        1
      ],
      "name": "obj_0_2"
    },
    {
      "mesh": 0,
      "name": ""
    },
    {
      "mesh": 1,
      "name": ""
    },
    {
      "mesh": 2,
      "name": ""
    },
    {
      "mesh": 3,
      "name": ""
    }
  ],
  "scene": 0,
  "scenes": [
    {
      "name": "OSG_Scene",
      "nodes": [
        0
      ]
    }
  ]
}

